<mxfile host="65bd71144e">
    <diagram name="Page-1" id="Zh-s0ib5nw7gAv32Fi13">
        <mxGraphModel dx="896" dy="604" grid="1" gridSize="10" guides="1" tooltips="1" connect="1" arrows="1" fold="1" page="1" pageScale="1" pageWidth="850" pageHeight="1100" math="0" shadow="0">
            <root>
                <mxCell id="0"/>
                <mxCell id="1" parent="0"/>
                <mxCell id="LSsMZi9QILxTGmWa6iHM-35" style="edgeStyle=orthogonalEdgeStyle;rounded=0;orthogonalLoop=1;jettySize=auto;html=1;exitX=0.5;exitY=0;exitDx=0;exitDy=0;entryX=0.5;entryY=1;entryDx=0;entryDy=0;shape=link;fontFamily=FiraCode Nerd Font Propo;" parent="1" source="LSsMZi9QILxTGmWa6iHM-13" target="LSsMZi9QILxTGmWa6iHM-31" edge="1">
                    <mxGeometry relative="1" as="geometry"/>
                </mxCell>
                <mxCell id="LSsMZi9QILxTGmWa6iHM-41" value="&lt;font style=&quot;font-size: 14px;&quot;&gt;1,N&lt;/font&gt;" style="edgeLabel;html=1;align=center;verticalAlign=middle;resizable=0;points=[];fontFamily=FiraCode Nerd Font Propo;" parent="LSsMZi9QILxTGmWa6iHM-35" vertex="1" connectable="0">
                    <mxGeometry x="0.16" y="3" relative="1" as="geometry">
                        <mxPoint x="3" y="8" as="offset"/>
                    </mxGeometry>
                </mxCell>
                <mxCell id="LSsMZi9QILxTGmWa6iHM-13" value="Revue" style="swimlane;fontStyle=0;childLayout=stackLayout;horizontal=1;startSize=30;horizontalStack=0;resizeParent=1;resizeParentMax=0;resizeLast=0;collapsible=1;marginBottom=0;whiteSpace=wrap;html=1;fontFamily=FiraCode Nerd Font Propo;" parent="1" vertex="1">
                    <mxGeometry x="520" y="490" width="140" height="60" as="geometry"/>
                </mxCell>
                <mxCell id="LSsMZi9QILxTGmWa6iHM-14" value="Nom" style="text;strokeColor=none;fillColor=none;align=left;verticalAlign=middle;spacingLeft=4;spacingRight=4;overflow=hidden;points=[[0,0.5],[1,0.5]];portConstraint=eastwest;rotatable=0;whiteSpace=wrap;html=1;fontFamily=FiraCode Nerd Font Propo;" parent="LSsMZi9QILxTGmWa6iHM-13" vertex="1">
                    <mxGeometry y="30" width="140" height="30" as="geometry"/>
                </mxCell>
                <mxCell id="LSsMZi9QILxTGmWa6iHM-17" value="&lt;font style=&quot;font-size: 14px;&quot;&gt;Article&lt;/font&gt;" style="swimlane;fontStyle=0;childLayout=stackLayout;horizontal=1;startSize=30;horizontalStack=0;resizeParent=1;resizeParentMax=0;resizeLast=0;collapsible=1;marginBottom=0;whiteSpace=wrap;html=1;fontFamily=FiraCode Nerd Font Propo;" parent="1" vertex="1">
                    <mxGeometry x="520" y="150" width="140" height="90" as="geometry"/>
                </mxCell>
                <mxCell id="LSsMZi9QILxTGmWa6iHM-18" value="&lt;u&gt;Titre&lt;/u&gt;" style="text;strokeColor=none;fillColor=none;align=left;verticalAlign=middle;spacingLeft=4;spacingRight=4;overflow=hidden;points=[[0,0.5],[1,0.5]];portConstraint=eastwest;rotatable=0;whiteSpace=wrap;html=1;fontFamily=FiraCode Nerd Font Propo;" parent="LSsMZi9QILxTGmWa6iHM-17" vertex="1">
                    <mxGeometry y="30" width="140" height="30" as="geometry"/>
                </mxCell>
                <mxCell id="LSsMZi9QILxTGmWa6iHM-19" value="Date de fin d'écriture" style="text;strokeColor=none;fillColor=none;align=left;verticalAlign=middle;spacingLeft=4;spacingRight=4;overflow=hidden;points=[[0,0.5],[1,0.5]];portConstraint=eastwest;rotatable=0;whiteSpace=wrap;html=1;fontFamily=FiraCode Nerd Font Propo;" parent="LSsMZi9QILxTGmWa6iHM-17" vertex="1">
                    <mxGeometry y="60" width="140" height="30" as="geometry"/>
                </mxCell>
                <mxCell id="LSsMZi9QILxTGmWa6iHM-21" value="&lt;font style=&quot;font-size: 14px;&quot;&gt;Scientifique&lt;/font&gt;" style="swimlane;fontStyle=0;childLayout=stackLayout;horizontal=1;startSize=30;horizontalStack=0;resizeParent=1;resizeParentMax=0;resizeLast=0;collapsible=1;marginBottom=0;whiteSpace=wrap;html=1;fontFamily=FiraCode Nerd Font Propo;" parent="1" vertex="1">
                    <mxGeometry x="50" y="120" width="140" height="120" as="geometry"/>
                </mxCell>
                <mxCell id="LSsMZi9QILxTGmWa6iHM-22" value="&lt;u&gt;Nom&lt;/u&gt;" style="text;strokeColor=none;fillColor=none;align=left;verticalAlign=middle;spacingLeft=4;spacingRight=4;overflow=hidden;points=[[0,0.5],[1,0.5]];portConstraint=eastwest;rotatable=0;whiteSpace=wrap;html=1;fontFamily=FiraCode Nerd Font Propo;" parent="LSsMZi9QILxTGmWa6iHM-21" vertex="1">
                    <mxGeometry y="30" width="140" height="30" as="geometry"/>
                </mxCell>
                <mxCell id="LSsMZi9QILxTGmWa6iHM-23" value="Prénom" style="text;strokeColor=none;fillColor=none;align=left;verticalAlign=middle;spacingLeft=4;spacingRight=4;overflow=hidden;points=[[0,0.5],[1,0.5]];portConstraint=eastwest;rotatable=0;whiteSpace=wrap;html=1;fontFamily=FiraCode Nerd Font Propo;" parent="LSsMZi9QILxTGmWa6iHM-21" vertex="1">
                    <mxGeometry y="60" width="140" height="30" as="geometry"/>
                </mxCell>
                <mxCell id="LSsMZi9QILxTGmWa6iHM-24" value="Date de naissance" style="text;strokeColor=none;fillColor=none;align=left;verticalAlign=middle;spacingLeft=4;spacingRight=4;overflow=hidden;points=[[0,0.5],[1,0.5]];portConstraint=eastwest;rotatable=0;whiteSpace=wrap;html=1;fontFamily=FiraCode Nerd Font Propo;" parent="LSsMZi9QILxTGmWa6iHM-21" vertex="1">
                    <mxGeometry y="90" width="140" height="30" as="geometry"/>
                </mxCell>
                <mxCell id="LSsMZi9QILxTGmWa6iHM-36" style="edgeStyle=orthogonalEdgeStyle;rounded=0;orthogonalLoop=1;jettySize=auto;html=1;exitX=0.5;exitY=0;exitDx=0;exitDy=0;shape=link;fontFamily=FiraCode Nerd Font Propo;" parent="1" source="LSsMZi9QILxTGmWa6iHM-31" target="LSsMZi9QILxTGmWa6iHM-17" edge="1">
                    <mxGeometry relative="1" as="geometry"/>
                </mxCell>
                <mxCell id="LSsMZi9QILxTGmWa6iHM-40" value="&lt;font style=&quot;font-size: 14px;&quot;&gt;1,N&lt;/font&gt;" style="edgeLabel;html=1;align=center;verticalAlign=middle;resizable=0;points=[];fontFamily=FiraCode Nerd Font Propo;" parent="LSsMZi9QILxTGmWa6iHM-36" vertex="1" connectable="0">
                    <mxGeometry x="0.1714" y="2" relative="1" as="geometry">
                        <mxPoint x="2" y="11" as="offset"/>
                    </mxGeometry>
                </mxCell>
                <mxCell id="LSsMZi9QILxTGmWa6iHM-31" value="&lt;font style=&quot;font-size: 14px;&quot;&gt;Parait&lt;/font&gt;&lt;br&gt;Date de parution" style="ellipse;whiteSpace=wrap;html=1;fontFamily=FiraCode Nerd Font Propo;" parent="1" vertex="1">
                    <mxGeometry x="530" y="310" width="120" height="80" as="geometry"/>
                </mxCell>
                <mxCell id="LSsMZi9QILxTGmWa6iHM-34" style="edgeStyle=orthogonalEdgeStyle;rounded=0;orthogonalLoop=1;jettySize=auto;html=1;exitX=1;exitY=0.5;exitDx=0;exitDy=0;shape=link;fontFamily=FiraCode Nerd Font Propo;" parent="1" source="LSsMZi9QILxTGmWa6iHM-32" target="LSsMZi9QILxTGmWa6iHM-17" edge="1">
                    <mxGeometry relative="1" as="geometry"/>
                </mxCell>
                <mxCell id="LSsMZi9QILxTGmWa6iHM-39" value="&lt;font style=&quot;font-size: 14px;&quot;&gt;1,N&lt;/font&gt;" style="edgeLabel;html=1;align=center;verticalAlign=middle;resizable=0;points=[];fontFamily=FiraCode Nerd Font Propo;" parent="LSsMZi9QILxTGmWa6iHM-34" vertex="1" connectable="0">
                    <mxGeometry x="-0.06" relative="1" as="geometry">
                        <mxPoint as="offset"/>
                    </mxGeometry>
                </mxCell>
                <mxCell id="LSsMZi9QILxTGmWa6iHM-32" value="&lt;font style=&quot;font-size: 14px;&quot;&gt;Ecrit&lt;/font&gt;" style="ellipse;whiteSpace=wrap;html=1;fontFamily=FiraCode Nerd Font Propo;" parent="1" vertex="1">
                    <mxGeometry x="300" y="155" width="120" height="80" as="geometry"/>
                </mxCell>
                <mxCell id="LSsMZi9QILxTGmWa6iHM-33" style="edgeStyle=orthogonalEdgeStyle;rounded=0;orthogonalLoop=1;jettySize=auto;html=1;exitX=1;exitY=0.5;exitDx=0;exitDy=0;shape=link;fontFamily=FiraCode Nerd Font Propo;" parent="1" source="LSsMZi9QILxTGmWa6iHM-23" target="LSsMZi9QILxTGmWa6iHM-32" edge="1">
                    <mxGeometry relative="1" as="geometry"/>
                </mxCell>
                <mxCell id="LSsMZi9QILxTGmWa6iHM-37" value="&lt;font style=&quot;font-size: 14px;&quot;&gt;1,N&lt;/font&gt;" style="edgeLabel;html=1;align=center;verticalAlign=middle;resizable=0;points=[];fontFamily=FiraCode Nerd Font Propo;" parent="LSsMZi9QILxTGmWa6iHM-33" vertex="1" connectable="0">
                    <mxGeometry x="0.1455" y="-2" relative="1" as="geometry">
                        <mxPoint x="-13" y="-2" as="offset"/>
                    </mxGeometry>
                </mxCell>
            </root>
        </mxGraphModel>
    </diagram>
</mxfile>